<svg width="108" height="20" viewBox="0 0 108 20" fill="none" xmlns="http://www.w3.org/2000/svg">
<g clip-path="url(#clip0_1_2029)">
<path fill-rule="evenodd" clip-rule="evenodd" d="M9.16676 2.65832C9.22433 2.47578 9.33858 2.31635 9.49294 2.20318C9.64729 2.09001 9.8337 2.02899 10.0251 2.02899C10.2165 2.02899 10.4029 2.09001 10.5573 2.20318C10.7116 2.31635 10.8259 2.47578 10.8834 2.65832L12.4334 7.42498H17.4334C17.6317 7.41749 17.8269 7.4751 17.9893 7.58902C18.1517 7.70293 18.2724 7.86689 18.3329 8.05583C18.3933 8.24478 18.3903 8.44832 18.3242 8.63536C18.2581 8.82241 18.1325 8.98266 17.9668 9.09165L13.9084 12.0333L15.4584 16.8083C15.5197 16.9902 15.5213 17.1869 15.4628 17.3698C15.4044 17.5526 15.2891 17.7119 15.1336 17.8246C14.9782 17.9372 14.7908 17.9972 14.5989 17.9957C14.407 17.9943 14.2205 17.9316 14.0668 17.8167L10.0001 14.8417L5.94176 17.7917C5.78802 17.9066 5.60157 17.9693 5.40963 17.9707C5.2177 17.9721 5.03034 17.9122 4.87491 17.7996C4.71948 17.6869 4.60412 17.5276 4.54569 17.3448C4.48725 17.1619 4.4888 16.9652 4.5501 16.7833L6.1001 12.0083L2.04176 9.06665C1.876 8.95766 1.75047 8.79741 1.68437 8.61036C1.61826 8.42332 1.6152 8.21978 1.67566 8.03083C1.73612 7.84189 1.85678 7.67793 2.0192 7.56402C2.18161 7.4501 2.37686 7.39249 2.5751 7.39998H7.5751L9.16676 2.65832Z" fill="#FBAD39"/>
<path fill-rule="evenodd" clip-rule="evenodd" d="M31.1668 2.65832C31.2243 2.47578 31.3386 2.31635 31.4929 2.20318C31.6473 2.09001 31.8337 2.02899 32.0251 2.02899C32.2165 2.02899 32.4029 2.09001 32.5573 2.20318C32.7116 2.31635 32.8259 2.47578 32.8834 2.65832L34.4334 7.42498H39.4334C39.6317 7.41749 39.8269 7.4751 39.9893 7.58902C40.1517 7.70293 40.2724 7.86689 40.3329 8.05583C40.3933 8.24478 40.3903 8.44832 40.3242 8.63536C40.2581 8.82241 40.1325 8.98266 39.9668 9.09165L35.9084 12.0333L37.4584 16.8083C37.5197 16.9902 37.5213 17.1869 37.4628 17.3698C37.4044 17.5526 37.2891 17.7119 37.1336 17.8246C36.9782 17.9372 36.7908 17.9972 36.5989 17.9957C36.407 17.9943 36.2205 17.9316 36.0668 17.8167L32.0001 14.8417L27.9418 17.7917C27.788 17.9066 27.6016 17.9693 27.4096 17.9707C27.2177 17.9721 27.0303 17.9122 26.8749 17.7996C26.7195 17.6869 26.6041 17.5276 26.5457 17.3448C26.4873 17.1619 26.4888 16.9652 26.5501 16.7833L28.1001 12.0083L24.0418 9.06665C23.876 8.95766 23.7505 8.79741 23.6844 8.61036C23.6183 8.42332 23.6152 8.21978 23.6757 8.03083C23.7361 7.84189 23.8568 7.67793 24.0192 7.56402C24.1816 7.4501 24.3769 7.39249 24.5751 7.39998H29.5751L31.1668 2.65832Z" fill="#FBAD39"/>
<path fill-rule="evenodd" clip-rule="evenodd" d="M53.1668 2.65832C53.2243 2.47578 53.3386 2.31635 53.4929 2.20318C53.6473 2.09001 53.8337 2.02899 54.0251 2.02899C54.2165 2.02899 54.4029 2.09001 54.5573 2.20318C54.7116 2.31635 54.8259 2.47578 54.8834 2.65832L56.4334 7.42498H61.4334C61.6317 7.41749 61.8269 7.4751 61.9893 7.58902C62.1517 7.70293 62.2724 7.86689 62.3329 8.05583C62.3933 8.24478 62.3903 8.44832 62.3242 8.63536C62.2581 8.82241 62.1325 8.98266 61.9668 9.09165L57.9084 12.0333L59.4584 16.8083C59.5197 16.9902 59.5213 17.1869 59.4628 17.3698C59.4044 17.5526 59.2891 17.7119 59.1336 17.8246C58.9782 17.9372 58.7908 17.9972 58.5989 17.9957C58.407 17.9943 58.2205 17.9316 58.0668 17.8167L54.0001 14.8417L49.9418 17.7917C49.788 17.9066 49.6016 17.9693 49.4096 17.9707C49.2177 17.9721 49.0303 17.9122 48.8749 17.7996C48.7195 17.6869 48.6041 17.5276 48.5457 17.3448C48.4873 17.1619 48.4888 16.9652 48.5501 16.7833L50.1001 12.0083L46.0418 9.06665C45.876 8.95766 45.7505 8.79741 45.6844 8.61036C45.6183 8.42332 45.6152 8.21978 45.6757 8.03083C45.7361 7.84189 45.8568 7.67793 46.0192 7.56402C46.1816 7.4501 46.3769 7.39249 46.5751 7.39998H51.5751L53.1668 2.65832Z" fill="#FBAD39"/>
<path fill-rule="evenodd" clip-rule="evenodd" d="M75.1668 2.65832C75.2243 2.47578 75.3386 2.31635 75.4929 2.20318C75.6473 2.09001 75.8337 2.02899 76.0251 2.02899C76.2165 2.02899 76.4029 2.09001 76.5573 2.20318C76.7116 2.31635 76.8259 2.47578 76.8834 2.65832L78.4334 7.42498H83.4334C83.6317 7.41749 83.8269 7.4751 83.9893 7.58902C84.1517 7.70293 84.2724 7.86689 84.3329 8.05583C84.3933 8.24478 84.3903 8.44832 84.3242 8.63536C84.2581 8.82241 84.1325 8.98266 83.9668 9.09165L79.9084 12.0333L81.4584 16.8083C81.5197 16.9902 81.5213 17.1869 81.4628 17.3698C81.4044 17.5526 81.2891 17.7119 81.1336 17.8246C80.9782 17.9372 80.7908 17.9972 80.5989 17.9957C80.407 17.9943 80.2205 17.9316 80.0668 17.8167L76.0001 14.8417L71.9418 17.7917C71.788 17.9066 71.6016 17.9693 71.4096 17.9707C71.2177 17.9721 71.0303 17.9122 70.8749 17.7996C70.7195 17.6869 70.6041 17.5276 70.5457 17.3448C70.4873 17.1619 70.4888 16.9652 70.5501 16.7833L72.1001 12.0083L68.0418 9.06665C67.876 8.95766 67.7505 8.79741 67.6844 8.61036C67.6183 8.42332 67.6152 8.21978 67.6757 8.03083C67.7361 7.84189 67.8568 7.67793 68.0192 7.56402C68.1816 7.4501 68.3769 7.39249 68.5751 7.39998H73.5751L75.1668 2.65832Z" fill="#FBAD39"/>
<path fill-rule="evenodd" clip-rule="evenodd" d="M97.1668 2.65832C97.2243 2.47578 97.3386 2.31635 97.4929 2.20318C97.6473 2.09001 97.8337 2.02899 98.0251 2.02899C98.2165 2.02899 98.4029 2.09001 98.5573 2.20318C98.7116 2.31635 98.8259 2.47578 98.8834 2.65832L100.433 7.42498H105.433C105.632 7.41749 105.827 7.4751 105.989 7.58902C106.152 7.70293 106.272 7.86689 106.333 8.05583C106.393 8.24478 106.39 8.44832 106.324 8.63536C106.258 8.82241 106.133 8.98266 105.967 9.09165L101.908 12.0333L103.458 16.8083C103.52 16.9902 103.521 17.1869 103.463 17.3698C103.404 17.5526 103.289 17.7119 103.134 17.8246C102.978 17.9372 102.791 17.9972 102.599 17.9957C102.407 17.9943 102.221 17.9316 102.067 17.8167L98.0001 14.8417L93.9418 17.7917C93.788 17.9066 93.6016 17.9693 93.4096 17.9707C93.2177 17.9722 93.0303 17.9122 92.8749 17.7996C92.7195 17.6869 92.6041 17.5276 92.5457 17.3448C92.4873 17.1619 92.4888 16.9652 92.5501 16.7833L94.1001 12.0083L90.0418 9.06665C89.876 8.95766 89.7505 8.79741 89.6844 8.61036C89.6183 8.42332 89.6152 8.21978 89.6757 8.03083C89.7361 7.84189 89.8568 7.67793 90.0192 7.56402C90.1816 7.4501 90.3769 7.39249 90.5751 7.39998H95.5751L97.1668 2.65832Z" stroke="#90A3BF" stroke-width="1.5" stroke-linecap="round" stroke-linejoin="round"/>
</g>
<defs>
<clipPath id="clip0_1_2029">
<rect width="108" height="20" fill="white"/>
</clipPath>
</defs>
</svg>
